<svg viewBox="0 0 1440 320" xmlns="http://www.w3.org/2000/svg">
  <defs>
    <linearGradient id="grad1" x1="0%" y1="0%" x2="100%" y2="0%">
      <stop offset="0%" style="stop-color:#1e3a8a;stop-opacity:1" />
      <stop offset="100%" style="stop-color:#7e22ce;stop-opacity:1" />
    </linearGradient>
  </defs>
  <path fill="url(#grad1)" fill-opacity="1" d="M0,128L60,138.7C120,149,240,171,360,165.3C480,160,600,128,720,122.7C840,117,960,139,1080,144C1200,149,1320,139,1380,133.3L1440,128L1440,320L1380,320C1320,320,1200,320,1080,320C960,320,840,320,720,320C600,320,480,320,360,320C240,320,120,320,60,320L0,320Z"></path>
  <path fill="url(#grad1)" fill-opacity="0.8" d="M0,96L60,101.3C120,107,240,117,360,117.3C480,118,600,110,720,112C840,114,960,128,1080,144C1200,160,1320,176,1380,181.3L1440,192L1440,320L1380,320C1320,320,1200,320,1080,320C960,320,840,320,720,320C600,320,480,320,360,320C240,320,120,320,60,320L0,320Z"></path>
  <path fill="url(#grad1)" fill-opacity="0.6" d="M0,64L60,69.3C120,75,240,85,360,90.7C480,96,600,96,720,90.7C840,85,960,75,1080,80C1200,85,1320,107,1380,112L1440,128L1440,320L1380,320C1320,320,1200,320,1080,320C960,320,840,320,720,320C600,320,480,320,360,320C240,320,120,320,60,320L0,320Z"></path>
</svg>
